<?xml version="1.0" encoding="utf-8"?>
<!-- Generator: Adobe Illustrator 21.1.0, SVG Export Plug-In . SVG Version: 6.00 Build 0)  -->
<svg version="1.1" id="Layer_1" xmlns="http://www.w3.org/2000/svg" xmlns:xlink="http://www.w3.org/1999/xlink" x="0px" y="0px"
	 viewBox="0 0 226 70" style="enable-background:new 0 0 226 70;" xml:space="preserve">
<style type="text/css">
	.st0{fill:#FFFFFF;}
	.st1{fill:#14C4FB;}
	.st2{fill:#00B4FF;}
	.st3{fill:#24D14D;}
	.st4{fill:#2BE078;}
</style>
<g>
	<path class="st0" d="M87.5,49C80.1,49,75,42.5,75,35.3c0-7.2,5-13.7,12.4-13.7c6.2,0,9.3,4,9.3,4l2.8-2.7c0,0-4.2-5.2-12.1-5.2
		c-9.8,0-16.7,7.7-16.7,17.6s7,17.6,16.7,17.6c7.9,0,12.5-5.6,12.5-5.6l-2.8-2.8C97.3,44.4,93.7,49,87.5,49z"/>
	<path class="st0" d="M115.5,18.2l-13.3,34h4.3l3.5-9.1h14.6l3.5,9.1h4.3l-13.2-33.9h-3.7V18.2z M111.6,39.2l5.8-15.1l5.8,15.1
		H111.6z"/>
	<polygon class="st0" points="158.8,45.4 140.6,18.2 136.4,18.2 136.4,52.3 140.5,52.3 140.5,25.1 158.7,52.3 162.9,52.3 
		162.9,18.2 158.8,18.2 	"/>
	<path class="st0" d="M184.5,17.6c-9.8,0-16.7,7.7-16.7,17.6s7,17.6,16.7,17.6c9.8,0,16.7-7.7,16.7-17.6
		C201.3,25.5,194.3,17.6,184.5,17.6z M184.5,49c-7.4,0-12.4-6.4-12.4-13.7c0-7.2,5-13.7,12.4-13.7s12.4,6.4,12.4,13.7
		C196.9,42.5,191.9,49,184.5,49z"/>
	<polygon class="st0" points="210.2,48.4 210.2,36.7 224.5,36.7 224.5,32.9 210.2,32.9 210.2,22.1 225.7,22.1 225.7,18.2 
		206.2,18.2 206.2,52.3 226,52.3 226,48.4 	"/>
</g>
<polygon class="st1" points="31.2,40.8 31.2,70 62.2,53 62.2,40.8 "/>
<polygon class="st2" points="31.2,40.8 22.1,40.8 1.1,40.8 0.1,40.8 0.1,53 31.2,70 "/>
<polygon class="st3" points="31.1,0 0.2,17.2 0,34.2 22,34.2 22,26.2 31.1,20.1 "/>
<polygon class="st4" points="31.1,0 62.3,17.2 62.1,34.2 40.1,34.2 40.1,26.2 31.1,20.1 "/>
</svg>
